HIERARCHY
ROOT hip
{
	OFFSET 0.000000 0.000000 0.000000 
	CHANNELS 6 Xposition Yposition Zposition Xrotation Zrotation Yrotation
	JOINT abdomen
	{
		OFFSET 0.000000 3.402643 0.000000 
		CHANNELS 3 Xrotation Zrotation Yrotation
		JOINT chest
		{
			OFFSET 0.000000 8.438565 -0.680529 
			CHANNELS 3 Xrotation Zrotation Yrotation
			JOINT neck
			{
				OFFSET 0.000000 10.207942 -0.272212 
				CHANNELS 3 Xrotation Zrotation Yrotation
				JOINT head
				{
					OFFSET 0.000000 3.130431 0.000000 
					CHANNELS 3 Xrotation Zrotation Yrotation
					End Site
					{
						OFFSET 0.000000 3.130435 0.000000 
					}
				}
			}
			JOINT lCollar
			{
				OFFSET 3.470700 6.669187 -0.816635 
				CHANNELS 3 Yrotation Zrotation Xrotation
				JOINT lShldr
				{
					OFFSET 3.198488 0.000000 0.000000 
					CHANNELS 3 Zrotation Yrotation Xrotation
					JOINT lForeArm
					{
						OFFSET 10.139888 0.000000 0.000000 
						CHANNELS 3 Yrotation Zrotation Xrotation
						JOINT lHand
						{
							OFFSET 8.370511 0.000000 0.000000 
							CHANNELS 3 Zrotation Yrotation Xrotation
							End Site
							{
								OFFSET 4.083176 0.000000 0.000000 
							}
						}
					}
				}
			}
			JOINT rCollar
			{
				OFFSET -3.470700 6.669187 -0.816635 
				CHANNELS 3 Yrotation Zrotation Xrotation
				JOINT rShldr
				{
					OFFSET -3.198488 0.000000 0.000000 
					CHANNELS 3 Zrotation Yrotation Xrotation
					JOINT rForeArm
					{
						OFFSET -10.139888 0.000000 0.000000 
						CHANNELS 3 Yrotation Zrotation Xrotation
						JOINT rHand
						{
							OFFSET -8.370511 0.000000 0.000000 
							CHANNELS 3 Zrotation Yrotation Xrotation
							End Site
							{
								OFFSET -4.083176 0.000000 0.000000 
							}
						}
					}
				}
			}
		}
	}
	JOINT lThigh
	{
		OFFSET 5.308129 -1.633274 1.361059 
		CHANNELS 3 Xrotation Zrotation Yrotation
		JOINT lShin
		{
			OFFSET -2.041588 -20.007561 0.000000 
			CHANNELS 3 Xrotation Zrotation Yrotation
			JOINT lFoot
			{
				OFFSET 0.000000 -19.190928 -1.224953 
				CHANNELS 3 Xrotation Yrotation Zrotation
				End Site
				{
					OFFSET 0.000000 -2.449906 4.627600 
				}
			}
		}
	}
	JOINT rThigh
	{
		OFFSET -5.308129 -1.633274 1.361059 
		CHANNELS 3 Xrotation Zrotation Yrotation
		JOINT rShin
		{
			OFFSET 2.041588 -20.007561 0.000000 
			CHANNELS 3 Xrotation Zrotation Yrotation
			JOINT rFoot
			{
				OFFSET 0.000000 -19.190928 -1.224953 
				CHANNELS 3 Xrotation Yrotation Zrotation
				End Site
				{
					OFFSET 0.000000 -2.449906 4.627600 
				}
			}
		}
	}
}
MOTION
Frames: 6
Frame Time: 0.033333
-0.037184 60.336636 0.933721 14.697073 -3.139691 -9.535940 0.000000 0.000000 0.000000 -2.655655 2.965096 7.148766 1.308014 3.964798 0.274134 -8.645942 -1.755923 2.657396 8.444588 23.580568 20.870054 -91.257370 -11.938326 -1.001442 -34.134850 -11.092142 77.065826 -11.546331 -7.876877 -57.542057 -15.790883 -16.705872 19.571939 55.992054 17.910221 60.919674 49.531605 -16.382713 28.258930 24.542782 1.477934 -79.871498 -15.251678 15.892844 21.773899 33.890705 11.484936 1.248293 41.055172 -26.475994 -3.431115 -17.210451 -5.456872 0.063360 24.668039 3.609125 2.010494 36.863579 4.973005 39.934750 
0.042270 60.066006 0.870152 14.626131 -3.037653 -9.085285 0.000000 0.000000 0.000000 -2.654122 2.829561 7.128253 1.735566 3.789025 0.254642 -8.445891 -1.717036 2.559492 8.398989 23.577982 20.881622 -91.138550 -12.161579 -1.060394 -33.917545 -11.045071 76.624649 -10.931622 -7.525849 -57.791042 -15.768571 -16.708637 19.574022 56.264862 17.828701 61.086658 49.482063 -16.171196 26.989983 23.364895 2.241086 -79.875694 -16.901451 15.911943 21.605631 37.635300 12.533686 1.260783 40.012558 -27.346182 -1.771579 -17.910490 -5.573327 0.057443 26.470667 2.934589 1.995351 38.434319 7.292238 37.872433 
0.139758 59.026478 0.842018 14.670452 -2.808770 -8.751185 0.000000 0.000000 0.000000 -2.933740 2.713452 7.098034 2.123614 3.476533 0.235128 -8.377968 -1.726792 2.559491 8.735446 23.424147 20.761074 -90.947906 -11.914768 -1.152247 -34.131287 -11.241310 77.240540 -10.554338 -7.335160 -57.913898 -15.603312 -16.742435 19.614973 56.641697 17.640173 61.323269 49.469051 -15.792639 25.853428 22.367514 2.839422 -79.873779 -17.783493 15.518101 21.330200 39.526188 13.238396 1.285484 38.727482 -28.383724 -2.807445 -18.675806 -5.857626 -0.000325 28.626654 2.611949 2.141341 40.124695 8.933280 36.906857 
0.245528 57.240154 0.832666 14.441282 -2.569910 -8.387495 0.000000 0.000000 0.000000 -2.910058 2.597272 7.078059 2.267161 3.154277 0.205842 -8.615874 -1.785286 2.589067 9.159031 23.125374 20.624119 -90.707321 -11.490892 -1.276041 -34.659069 -11.672672 78.130867 -10.308922 -7.469594 -57.937134 -15.354125 -16.685745 19.714548 56.865414 17.340673 61.500805 49.612972 -15.533493 25.083107 21.355307 3.362836 -79.885864 -18.249695 14.712895 20.966743 41.103825 14.050144 1.416316 37.358376 -29.664902 -5.767467 -19.573620 -6.091706 -0.013051 32.201241 2.425923 2.448627 41.134365 9.770201 36.813046 
0.345719 54.684059 0.747813 14.240435 -2.388861 -7.966269 0.000000 0.000000 0.000000 -2.571819 2.500519 7.047911 1.893817 2.792954 0.185802 -9.322343 -1.804685 2.667153 9.369990 22.828783 20.585896 -90.617065 -11.215809 -1.325722 -35.154545 -11.839345 78.094429 -9.881892 -7.605441 -58.003544 -15.059355 -16.598766 19.837141 57.155083 17.088999 61.708961 49.636364 -15.597363 24.177967 20.340061 3.706118 -79.905899 -20.161072 13.811303 20.388170 45.529705 15.494993 1.531067 34.538876 -31.011333 -9.209577 -21.700600 -5.867231 0.170679 38.666359 1.894315 2.883882 39.945724 10.727886 38.471886 
0.425590 51.409134 0.518482 13.962675 -2.420344 -7.536150 0.000000 0.000000 0.000000 -1.391803 2.490879 7.038154 0.563142 2.382804 0.156521 -10.772370 -1.745792 2.911482 9.228095 22.688602 20.664684 -91.125908 -11.516805 -1.065051 -35.012775 -11.043188 76.100632 -9.166112 -7.447324 -58.250591 -14.645323 -16.825821 19.892847 57.911194 17.190035 62.114479 49.230103 -16.127022 22.482531 19.593538 3.560078 -79.947350 -23.871517 13.089463 19.620548 54.308746 17.649677 1.578284 27.310661 -31.428211 -13.582161 -25.073086 -4.979274 0.559325 48.103130 0.471235 3.536673 34.477280 12.457102 42.246693 
